<?xml version="1.0" encoding="utf-8"?>
<!-- Generator: Adobe Illustrator 27.5.0, SVG Export Plug-In . SVG Version: 6.00 Build 0)  -->
<svg version="1.1" id="Layer_1" xmlns="http://www.w3.org/2000/svg" xmlns:xlink="http://www.w3.org/1999/xlink" x="0px" y="0px"
	 viewBox="0 0 4000 4000" style="enable-background:new 0 0 4000 4000;" xml:space="preserve">
<g>
	<rect x="16.529" y="16.529" style="fill-rule:evenodd;clip-rule:evenodd;fill:#FFFFFF;" width="3966.942" height="3966.942"/>
	<g>
		<defs>
			<path id="SVGID_1_" d="M2875.106,1393.842c166.79,66.655,284.631,229.711,284.631,420.288
				c0,249.884-202.572,452.461-452.456,452.461c-138.05,0-261.64-61.848-344.633-159.322
				c-107.195,98.889-250.408,159.322-407.752,159.322c-118.091,0-228.215-34.058-321.145-92.846
				c-68.846,57.926-157.694,92.846-254.709,92.846c-108.828,0-207.383-43.917-278.949-114.98l407.922-235.514
				c19.65,11.812,42.192,18.104,65.431,18.104c45.481,0,86.889-24.195,109.511-62.441h526.489
				c23.173,35.937,63.238,58.271,106.939,58.271c70.248,0,127.217-56.974,127.217-127.221c0-13.76-2.207-27.344-6.526-40.274
				l361.456-361.453c8.805,1.893,17.805,2.848,26.853,2.848C2843.03,1403.93,2859.832,1400.337,2875.106,1393.842"/>
		</defs>
		<clipPath id="SVGID_00000177467921280849626800000008608430755952423850_">
			<use xlink:href="#SVGID_1_"  style="overflow:visible;"/>
		</clipPath>
		
			<linearGradient id="SVGID_00000045607115948432139580000016921328784228488343_" gradientUnits="userSpaceOnUse" x1="2949.8572" y1="2525.9788" x2="1342.2556" y2="1161.8469">
			<stop  offset="0" style="stop-color:#FF00FF"/>
			<stop  offset="1" style="stop-color:#0000FF"/>
		</linearGradient>
		
			<rect x="1100.094" y="1393.842" style="clip-path:url(#SVGID_00000177467921280849626800000008608430755952423850_);fill:url(#SVGID_00000045607115948432139580000016921328784228488343_);" width="2059.644" height="872.749"/>
	</g>
	<path style="opacity:0.3;fill-rule:evenodd;clip-rule:evenodd;fill:#5E147D;" d="M2342.296,1927.384
		c57.827-11.972,101.306-63.206,101.306-124.575c0-13.76-2.207-27.344-6.526-40.274l165.018-165.015
		c60.268-30.15,137.638-48.878,225.98-24.655c212.519,58.273,284.05,403.997-23.993,522.732
		C2551.296,2193.035,2416.278,2052.16,2342.296,1927.384 M1651.74,1907.26c12.397-9.676,23.038-21.669,31.218-35.501h526.489
		c18.413,28.552,47.491,48.517,80.578,55.517c-21.393,68.124-80.798,158.177-245.185,166.612
		C1814.378,2105.708,1686.196,2002.153,1651.74,1907.26z M1210.819,2087.685l297.197-171.589
		c19.65,11.812,42.192,18.104,65.431,18.104c24.172,0,47.195-6.836,66.859-18.985c-21.871,203.013-203.897,311.061-354.696,240.364
		C1285.611,2155.579,1248.844,2131.32,1210.819,2087.685z"/>
	<g>
		<defs>
			<path id="SVGID_00000063631720843972891190000010167060106660051605_" d="M2707.281,1361.674c2.263,0,4.512,0.051,6.76,0.084
				l-387.25,411.646l-757.53,18.854l-521.073,295.889c-41.104-62.408-65.051-137.135-65.051-217.461
				c0-218.648,177.251-395.899,395.904-395.899c1.673,0,3.336,0.041,5.003,0.061c79.595-239.03,305.087-411.385,570.851-411.385
				c241.671,0,450.02,142.529,545.671,348.094C2562.531,1379.679,2632.802,1361.674,2707.281,1361.674"/>
		</defs>
		<clipPath id="SVGID_00000072980832028412620010000016338813587560589450_">
			<use xlink:href="#SVGID_00000063631720843972891190000010167060106660051605_"  style="overflow:visible;"/>
		</clipPath>
		
			<linearGradient id="SVGID_00000019643385729486599100000006450522657843881095_" gradientUnits="userSpaceOnUse" x1="1768.6445" y1="867.8719" x2="1905.6702" y2="2081.2612">
			<stop  offset="0" style="stop-color:#00FFFF"/>
			<stop  offset="1" style="stop-color:#0000FF"/>
		</linearGradient>
		
			<rect x="983.138" y="1063.464" style="clip-path:url(#SVGID_00000072980832028412620010000016338813587560589450_);fill:url(#SVGID_00000019643385729486599100000006450522657843881095_);" width="1730.903" height="1024.684"/>
	</g>
	<path style="opacity:0.3;fill-rule:evenodd;clip-rule:evenodd;fill:#0131B9;" d="M2447.262,1645.348l-120.469,128.056
		l-757.53,18.854l-404.772,229.85c-21.909-39.633-37.653-87.026-36.555-140.744c3.425-167.96,164.53-342.772,394.188-284.501
		c0,0,70.258-239.947,378.75-260.511C2176.275,1317.996,2377.9,1479.927,2447.262,1645.348"/>
	<path style="opacity:0.3;fill-rule:evenodd;clip-rule:evenodd;fill:#020C6A;" d="M2707.281,1361.674
		c2.263,0,4.512,0.051,6.76,0.084l-387.25,411.646l-757.53,18.854l-521.073,295.889c-10.42-15.822-19.735-32.436-27.841-49.73
		l426.749-246.383c7.403-63.207,61.154-112.266,126.35-112.266c41.873,0,80.522,20.512,104.112,54.093h531.887
		c23.173-35.932,63.238-58.268,106.939-58.268c4.025,0,8.04,0.192,12.041,0.567l309.14-309.145
		C2660.291,1363.5,2683.574,1361.674,2707.281,1361.674"/>
	<g>
		<defs>
			<path id="SVGID_00000160168005804390268450000010313471307622240909_" d="M2825.385,1161.219
				c54.973,0,99.541,44.562,99.541,99.54c0,54.974-44.567,99.536-99.541,99.536c-12.276,0-24.021-2.225-34.877-6.288
				l-386.187,386.182c7.398,13.916,11.6,29.8,11.6,46.661c0,54.974-44.562,99.541-99.54,99.541c-40.251,0-74.919-23.889-90.6-58.266
				h-559.944c-14.713,36.597-50.532,62.441-92.39,62.441c-24.34,0-46.638-8.742-63.932-23.248l-470.578,271.684
				c0.261,2.934,0.397,5.904,0.397,8.907c0,54.973-44.562,99.541-99.536,99.541c-54.977,0-99.54-44.567-99.54-99.541
				c0-54.974,44.564-99.541,99.54-99.541c21.787,0,41.934,7.005,58.329,18.883l475.798-274.704l-0.018-1.522
				c0-54.974,44.567-99.541,99.54-99.541c38.598,0,72.064,21.975,88.577,54.093h563.757c15.681-34.377,50.349-58.268,90.6-58.268
				c7.455,0,14.722,0.825,21.702,2.38l394.054-394.053c-4.063-10.856-6.293-22.607-6.293-34.878
				C2725.845,1205.781,2770.412,1161.219,2825.385,1161.219"/>
		</defs>
		<clipPath id="SVGID_00000018206432793867352300000015673500685204940682_">
			<use xlink:href="#SVGID_00000160168005804390268450000010313471307622240909_"  style="overflow:visible;"/>
		</clipPath>
		
			<linearGradient id="SVGID_00000179604901612622002650000012902864458072625579_" gradientUnits="userSpaceOnUse" x1="953.0258" y1="2952.9753" x2="2764.0977" y2="520.2512">
			<stop  offset="0" style="stop-color:#0000FF"/>
			<stop  offset="1" style="stop-color:#00FFFF"/>
		</linearGradient>
		
			<rect x="840.258" y="1161.219" style="clip-path:url(#SVGID_00000018206432793867352300000015673500685204940682_);fill:url(#SVGID_00000179604901612622002650000012902864458072625579_);" width="2084.668" height="1086.231"/>
	</g>
	<path style="fill-rule:evenodd;clip-rule:evenodd;" d="M3362.632,2460.873v298.552h-72.726v-179.046l-66.772,179.046h-58.688
		l-67.203-179.469v179.469h-72.721v-298.552h85.911l83.778,206.691l82.936-206.691H3362.632z M2796.139,2460.873v178.62
		c0,17.861,4.395,31.613,13.188,41.255c8.79,9.638,21.689,14.454,38.702,14.454c17.007,0,30.051-4.816,39.123-14.454
		c9.076-9.642,13.612-23.394,13.612-41.255v-178.62h72.725v178.193c0,26.651-5.669,49.192-17.013,67.62
		c-11.339,18.431-26.58,32.324-45.719,41.681c-19.135,9.357-40.473,14.036-64.002,14.036c-23.536,0-44.587-4.61-63.159-13.826
		c-18.569-9.21-33.243-23.103-44.015-41.676c-10.777-18.572-16.165-41.183-16.165-67.835v-178.193H2796.139z M2571.167,2762.404
		c-21.83,0-41.397-3.545-58.689-10.635c-17.294-7.089-31.121-17.58-41.466-31.468c-10.354-13.896-15.808-30.623-16.375-50.188
		h77.398c1.137,11.056,4.965,19.496,11.483,25.309c6.527,5.81,15.031,8.716,25.517,8.716c10.775,0,19.284-2.484,25.521-7.441
		c6.237-4.96,9.357-11.84,9.357-20.63c0-7.369-2.483-13.464-7.445-18.286c-4.957-4.822-11.058-8.79-18.282-11.906
		c-7.235-3.121-17.514-6.668-30.84-10.636c-19.279-5.954-35.008-11.904-47.205-17.859c-12.192-5.956-22.681-14.746-31.471-26.37
		c-8.79-11.623-13.185-26.79-13.185-45.509c0-27.783,10.064-49.542,30.197-65.281c20.129-15.732,46.354-23.6,78.677-23.6
		c32.891,0,59.4,7.868,79.534,23.6c20.124,15.739,30.899,37.638,32.319,65.708h-78.681c-0.567-9.638-4.109-17.223-10.631-22.752
		c-6.522-5.529-14.885-8.293-25.09-8.293c-8.795,0-15.879,2.337-21.263,7.013c-5.393,4.686-8.083,11.415-8.083,20.203
		c0,9.643,4.535,17.159,13.606,22.547c9.076,5.384,23.25,11.198,42.529,17.433c19.281,6.522,34.948,12.759,47,18.714
		c12.044,5.955,22.466,14.6,31.256,25.942c8.788,11.344,13.184,25.944,13.184,43.808c0,17.008-4.324,32.461-12.974,46.354
		c-8.645,13.891-21.192,24.949-37.638,33.172C2612.984,2758.292,2593.563,2762.404,2571.167,2762.404z M2310.037,2594.41
		c13.893,0,24.238-3.261,31.046-9.778c6.807-6.521,10.208-15.737,10.208-27.643c0-11.911-3.402-21.125-10.208-27.648
		c-6.808-6.518-17.154-9.779-31.046-9.779h-39.553v74.848H2310.037z M2425.293,2556.989c0,17.294-3.969,33.098-11.906,47.417
		c-7.942,14.317-20.134,25.871-36.578,34.661c-16.446,8.79-36.859,13.185-61.243,13.185h-45.083v107.174h-72.726v-298.552h117.808
		c23.816,0,43.949,4.109,60.395,12.332c16.445,8.223,28.777,19.561,37,34.02C2421.184,2521.685,2425.293,2538.272,2425.293,2556.989
		z M2145.024,2460.873v298.552h-72.727v-298.552H2145.024z M2019.989,2460.873v298.552h-72.721v-179.046l-66.772,179.046h-58.693
		l-67.198-179.469v179.469h-72.726v-298.552h85.911l83.778,206.691l82.94-206.691H2019.989z M1524.522,2519.136v60.39h97.395v56.139
		h-97.395v65.498h110.154v58.263h-182.874v-298.552h182.874v58.263H1524.522z M1247.233,2595.263h45.083
		c13.326,0,23.324-3.266,29.982-9.783c6.668-6.521,9.998-15.732,9.998-27.643c0-11.344-3.33-20.273-9.998-26.79
		c-6.658-6.522-16.656-9.789-29.982-9.789h-45.083V2595.263z M1326.763,2759.425l-62.091-112.702h-17.44v112.702h-72.726v-298.552
		h122.063c23.536,0,43.594,4.109,60.178,12.332c16.587,8.223,28.994,19.491,37.217,33.81c8.218,14.318,12.332,30.266,12.332,47.842
		c0,19.848-5.603,37.572-16.797,53.165c-11.203,15.593-27.719,26.649-49.549,33.172l68.894,118.231H1326.763z M981.433,2696.06
		c23.812,0,42.881-7.942,57.203-23.82c14.314-15.879,21.473-36.861,21.473-62.939c0-26.374-7.159-47.427-21.473-63.164
		c-14.322-15.729-33.392-23.6-57.203-23.6c-24.101,0-43.312,7.8-57.63,23.388c-14.319,15.598-21.478,36.719-21.478,63.375
		c0,26.364,7.159,47.415,21.478,63.154C938.12,2688.189,957.332,2696.06,981.433,2696.06z M981.433,2762.404
		c-28.069,0-53.802-6.526-77.192-19.565c-23.393-13.04-41.962-31.261-55.717-54.65c-13.747-23.39-20.626-49.689-20.626-78.887
		c0-29.205,6.879-55.433,20.626-78.681c13.755-23.25,32.324-41.397,55.717-54.44c23.39-13.045,49.122-19.562,77.192-19.562
		c28.065,0,53.797,6.517,77.187,19.562c23.393,13.043,41.817,31.19,55.292,54.44c13.464,23.248,20.198,49.476,20.198,78.681
		c0,29.198-6.803,55.497-20.415,78.887c-13.612,23.388-32.038,41.61-55.288,54.65
		C1035.16,2755.878,1009.497,2762.404,981.433,2762.404z M2844.314,2824.158h-13.499v109.858h17.729v-77.529l62.316,77.529h13.335
		v-109.858h-17.575v78.162L2844.314,2824.158z M2698.678,2894.939h-46.455l23.225-52.264L2698.678,2894.939z M2715.63,2934.015
		h18.676l-49.281-109.858h-19.149l-49.281,109.858h18.676l10.364-23.071h59.476L2715.63,2934.015z M2524.954,2838.119
		c-11.197-11.089-24.747-16.633-40.654-16.633c-17.997,0-32.122,5.623-42.374,16.873c-10.253,11.245-15.379,25.188-15.379,41.826
		c0,7.534,1.149,14.572,3.45,21.107c2.304,6.541,5.706,12.453,10.2,17.734c4.502,5.286,10.546,9.469,18.132,12.562
		c7.58,3.083,16.243,4.625,25.97,4.625c17.163,0,31.547-6.382,43.167-19.146v-45.044h-46.934v15.696h30.61v22.288
		c-7.745,6.484-16.689,9.732-26.843,9.732c-13.39,0-23.488-3.823-30.286-11.461c-6.803-7.636-10.205-17.003-10.205-28.093
		c-0.102-12.033,3.51-22.134,10.833-30.291c7.322-8.162,17.21-12.238,29.658-12.238c5.235,0,10.547,1.016,15.935,3.06
		c5.384,2.038,9.966,4.937,13.728,8.709L2524.954,2838.119z M2236.188,2879.867c0-12.341,3.425-22.387,10.279-30.132
		c6.854-7.739,16.449-11.615,28.8-11.615c8.471,0.109,15.72,2.278,21.74,6.518c6.012,4.241,10.299,9.39,12.866,15.463
		c2.563,6.068,3.841,12.655,3.841,19.767c0,11.517-3.236,21.112-9.726,28.805c-6.484,7.689-16.165,11.532-29.036,11.532
		c-6.49,0-12.271-1.177-17.344-3.529c-5.074-2.352-9.127-5.491-12.159-9.413c-3.036-3.926-5.309-8.213-6.826-12.871
		C2237.1,2889.734,2236.29,2884.895,2236.188,2879.867z M2275.267,2822.115c-16.534,0-30.08,5.412-40.65,16.245
		c-10.565,10.828-15.851,24.612-15.851,41.354c0,7.43,1.177,14.468,3.534,21.111c2.352,6.639,5.754,12.633,10.2,17.969
		c4.446,5.342,10.331,9.6,17.655,12.797c7.322,3.185,15.592,4.783,24.799,4.783c9.206,0,17.473-1.547,24.795-4.63
		c7.329-3.088,13.213-7.299,17.659-12.632c4.446-5.34,7.848-11.385,10.2-18.132c2.357-6.747,3.529-13.888,3.529-21.421
		c0-15.903-4.859-29.425-14.59-40.57C2306.809,2827.845,2293.053,2822.219,2275.267,2822.115z M2054.769,2824.158v109.858h75.491
		v-16.319h-57.911v-93.539H2054.769z M1948.842,2839.539c-7.744-12.345-21.397-18.521-40.958-18.521
		c-5.238,0-10.256,0.595-15.073,1.803c-4.812,1.2-9.311,3.008-13.494,5.412c-4.183,2.408-7.539,5.702-10.045,9.886
		c-2.512,4.19-3.767,9.007-3.767,14.447c0,4.498,0.81,8.499,2.432,12.003c1.625,3.504,3.663,6.359,6.124,8.555
		c2.454,2.193,5.678,4.076,9.651,5.651c3.979,1.564,7.769,2.774,11.377,3.602c3.612,0.845,7.927,1.575,12.949,2.203
		c8.79,1.152,15.669,3.06,20.64,5.726c4.967,2.669,7.455,6.775,7.455,12.322c0,4.291-1.438,7.871-4.316,10.747
		c-2.876,2.883-6.301,4.844-10.284,5.891c-3.974,1.045-8.367,1.563-13.18,1.563c-15.696,0-27.099-6.01-34.217-18.048l-13.18,8.79
		c8.997,16.638,24.744,24.958,47.238,24.958c8.162,0,15.514-1.078,22.049-3.223c6.541-2.14,12.088-5.828,16.638-11.058
		c4.549-5.238,6.826-11.773,6.826-19.621c0-5.858-1.177-10.912-3.534-15.144c-2.347-4.24-5.772-7.585-10.274-10.045
		c-4.503-2.459-9.051-4.316-13.653-5.572c-4.607-1.255-10.154-2.357-16.638-3.298c-8.683-1.256-15.303-2.98-19.856-5.179
		c-4.55-2.202-6.827-5.701-6.827-10.517c0-5.122,2.357-9.179,7.064-12.159c4.704-2.985,10.828-4.479,18.362-4.479
		c5.754,0.107,11.063,1.231,15.931,3.379c4.868,2.145,8.603,5.103,11.221,8.865L1948.842,2839.539z M1726.616,2840.163
		c6.803,0,11.98,2.015,15.542,6.04c3.555,4.03,5.335,8.767,5.335,14.207c0,5.547-1.78,10.205-5.335,13.972
		c-3.562,3.767-8.79,5.65-15.696,5.65h-33.431v-39.868H1726.616z M1768.368,2930.876l-32.803-36.565
		c10.149-1.466,17.655-5.364,22.522-11.694c4.869-6.331,7.301-13.841,7.301-22.517c0-9.835-3.425-18.288-10.284-25.349
		c-6.85-7.061-16.342-10.593-28.488-10.593c-5.646,0-14.173-0.028-25.582-0.08c-11.4-0.056-19.932-0.079-25.577-0.079v110.017
		h17.574v-37.98h23.231l33.425,37.98h20.569L1768.368,2930.876z M1550.545,2824.313v64.188c0,10.253-2.83,18.18-8.481,23.783
		c-5.645,5.595-12.969,8.129-21.969,7.608c-8.369-0.317-15.121-3.19-20.246-8.635c-5.126-5.44-7.689-13.025-7.689-22.757v-64.188
		h-17.425v64.188c0,14.863,4.321,26.426,12.95,34.686c8.631,8.27,19.432,12.557,32.41,12.871
		c13.916,0.521,25.37-3.379,34.372-11.694c8.995-8.318,13.498-20.27,13.498-35.863v-64.188H1550.545z M1279.037,2879.867
		c0-12.341,3.43-22.387,10.284-30.132c6.85-7.739,16.45-11.615,28.797-11.615c8.476,0.109,15.724,2.278,21.739,6.518
		c6.012,4.241,10.304,9.39,12.871,15.463c2.564,6.068,3.843,12.655,3.843,19.767c0,11.517-3.238,21.112-9.732,28.805
		c-6.484,7.689-16.164,11.532-29.03,11.532c-6.489,0-12.271-1.177-17.346-3.529c-5.074-2.352-9.127-5.491-12.164-9.413
		c-3.031-3.926-5.309-8.213-6.827-12.871C1279.957,2889.734,1279.145,2884.895,1279.037,2879.867z M1318.118,2822.115
		c-16.531,0-30.076,5.412-40.646,16.245c-10.57,10.828-15.854,24.612-15.854,41.354c0,7.43,1.175,14.468,3.532,21.111
		c2.357,6.639,5.759,12.633,10.205,17.969c4.441,5.342,10.33,9.6,17.654,12.797c7.322,3.185,15.594,4.783,24.8,4.783
		c9.206,0,17.466-1.547,24.795-4.63c7.327-3.088,13.207-7.299,17.658-12.632c4.446-5.34,7.848-11.385,10.197-18.132
		c2.355-6.747,3.532-13.888,3.532-21.421c0-15.903-4.863-29.425-14.59-40.57C1349.664,2827.845,1335.903,2822.219,1318.118,2822.115
		z M1096.687,2824.158h-20.878v0.783l42.375,64.035v45.04h17.578v-45.04l43.635-64.035v-0.783h-21.192l-31.231,48.494
		L1096.687,2824.158z M710.094,2703.285h95.268v56.14H637.368v-298.552h72.726V2703.285z"/>
	<rect style="fill:none;" width="4000" height="4000"/>
</g>
</svg>
